<svg width="147" height="33" viewBox="0 0 147 33" fill="none" xmlns="http://www.w3.org/2000/svg">
<rect x="0.655764" y="0.655764" width="145.688" height="31.6885" stroke="#FF5E28" stroke-width="1.31153"/>
<path d="M18.7812 16.6978C19.6486 16.8937 20.3341 17.3274 20.8377 17.9989C21.3553 18.6564 21.6141 19.4118 21.6141 20.2652C21.6141 21.5242 21.1804 22.5105 20.3131 23.224C19.4457 23.9375 18.2286 24.2942 16.6618 24.2942H9.33821V9.50016H16.431C17.9418 9.50016 19.124 9.83592 19.9773 10.5074C20.8447 11.1789 21.2784 12.1232 21.2784 13.3403C21.2784 14.2077 21.0475 14.9351 20.5859 15.5227C20.1382 16.0963 19.5366 16.488 18.7812 16.6978ZM13.4512 15.3758H15.5286C16.5639 15.3758 17.0815 14.9491 17.0815 14.0958C17.0815 13.2144 16.5639 12.7737 15.5286 12.7737H13.4512V15.3758ZM15.8434 20.9786C16.8786 20.9786 17.3962 20.545 17.3962 19.6776C17.3962 19.2299 17.2563 18.8872 16.9765 18.6494C16.7107 18.4116 16.326 18.2926 15.8224 18.2926H13.4512V20.9786H15.8434ZM26.6063 9.50016V18.0828C26.6063 18.8802 26.7881 19.4957 27.1519 19.9294C27.5296 20.3631 28.0962 20.5799 28.8516 20.5799C29.607 20.5799 30.1736 20.3631 30.5513 19.9294C30.9431 19.4818 31.1389 18.8662 31.1389 18.0828V9.50016H35.2519V18.0828C35.2519 19.4398 34.9651 20.6009 34.3915 21.5662C33.8179 22.5175 33.0345 23.238 32.0412 23.7276C31.062 24.2033 29.9708 24.4411 28.7677 24.4411C27.5646 24.4411 26.4874 24.2033 25.5361 23.7276C24.5988 23.238 23.8573 22.5175 23.3117 21.5662C22.7801 20.6149 22.5143 19.4538 22.5143 18.0828V9.50016H26.6063ZM50.3798 24.2942H46.2669L40.7899 16.0263V24.2942H36.677V9.50016H40.7899L46.2669 17.873V9.50016H50.3798V24.2942ZM60.6338 24.2942L55.9963 17.81V24.2942H51.8833V9.50016H55.9963V15.8794L60.5919 9.50016H65.3344L59.8994 16.6768L65.6072 24.2942H60.6338ZM70.3829 12.7947V15.2079H75.1044V18.3346H70.3829V20.9996H75.7339V24.2942H66.27V9.50016H75.7339V12.7947H70.3829ZM84.4184 24.2942L81.4806 18.8382H81.0399V24.2942H76.9269V9.50016H83.4111C84.6002 9.50016 85.6075 9.71001 86.4329 10.1297C87.2583 10.5354 87.8808 11.102 88.3005 11.8294C88.7202 12.5429 88.93 13.3473 88.93 14.2426C88.93 15.2499 88.6502 16.1382 88.0907 16.9077C87.5451 17.6631 86.7407 18.2017 85.6774 18.5235L89.014 24.2942H84.4184ZM81.0399 16.0263H83.0754C83.635 16.0263 84.0546 15.8934 84.3344 15.6276C84.6142 15.3618 84.7541 14.9771 84.7541 14.4735C84.7541 13.9978 84.6072 13.6271 84.3135 13.3613C84.0337 13.0815 83.621 12.9416 83.0754 12.9416H81.0399V16.0263ZM92.6346 16.8657C92.6346 15.4108 92.9354 14.1167 93.5369 12.9836C94.1525 11.8364 95.0198 10.9481 96.139 10.3186C97.2582 9.67503 98.5452 9.35327 100 9.35327C101.847 9.35327 103.4 9.8499 104.659 10.8432C105.918 11.8224 106.729 13.1585 107.093 14.8512H102.665C102.399 14.2916 102.029 13.8649 101.553 13.5711C101.091 13.2774 100.553 13.1305 99.9372 13.1305C98.9859 13.1305 98.2235 13.4732 97.6499 14.1587C97.0903 14.8302 96.8105 15.7325 96.8105 16.8657C96.8105 18.0128 97.0903 18.9292 97.6499 19.6147C98.2235 20.2862 98.9859 20.6219 99.9372 20.6219C100.553 20.6219 101.091 20.475 101.553 20.1812C102.029 19.8875 102.399 19.4608 102.665 18.9012H107.093C106.729 20.5939 105.918 21.9369 104.659 22.9302C103.4 23.9095 101.847 24.3991 100 24.3991C98.5452 24.3991 97.2582 24.0843 96.139 23.4548C95.0198 22.8113 94.1525 21.9229 93.5369 20.7898C92.9354 19.6426 92.6346 18.3346 92.6346 16.8657ZM125.471 9.50016V24.2942H121.358V16.1312L118.567 24.2942H115.126L112.314 16.0683V24.2942H108.201V9.50016H113.174L116.889 19.111L120.519 9.50016H125.471ZM132.555 24.4411C130.834 24.4411 129.421 24.0354 128.316 23.224C127.211 22.3986 126.616 21.2235 126.532 19.6986H130.918C130.96 20.2162 131.114 20.5939 131.38 20.8318C131.646 21.0696 131.988 21.1885 132.408 21.1885C132.786 21.1885 133.094 21.0976 133.331 20.9157C133.583 20.7198 133.709 20.454 133.709 20.1183C133.709 19.6846 133.506 19.3489 133.101 19.111C132.695 18.8732 132.037 18.6074 131.128 18.3136C130.163 17.9919 129.379 17.6841 128.778 17.3903C128.19 17.0825 127.673 16.6419 127.225 16.0683C126.791 15.4807 126.574 14.7183 126.574 13.781C126.574 12.8297 126.812 12.0183 127.288 11.3468C127.764 10.6613 128.421 10.1437 129.26 9.79395C130.1 9.44421 131.051 9.26934 132.114 9.26934C133.835 9.26934 135.206 9.67503 136.227 10.4864C137.263 11.2838 137.815 12.41 137.885 13.8649H133.415C133.401 13.4173 133.262 13.0815 132.996 12.8577C132.744 12.6338 132.415 12.5219 132.009 12.5219C131.702 12.5219 131.45 12.6129 131.254 12.7947C131.058 12.9766 130.96 13.2354 130.96 13.5711C130.96 13.8509 131.065 14.0958 131.275 14.3056C131.499 14.5015 131.772 14.6763 132.093 14.8302C132.415 14.9701 132.891 15.152 133.52 15.3758C134.458 15.6976 135.227 16.0193 135.829 16.3411C136.444 16.6489 136.969 17.0895 137.402 17.6631C137.85 18.2227 138.074 18.9362 138.074 19.8035C138.074 20.6849 137.85 21.4753 137.402 22.1748C136.969 22.8742 136.332 23.4268 135.493 23.8325C134.667 24.2382 133.688 24.4411 132.555 24.4411Z" fill="#FF5E28"/>
</svg>
